<svg width="217" height="109" viewBox="0 0 217 109" fill="none" xmlns="http://www.w3.org/2000/svg">
<path d="M110 61C110 55.4772 114.477 51 120 51H122C127.523 51 132 55.4772 132 61V99C132 104.523 127.523 109 122 109H120C114.477 109 110 104.523 110 99V61Z" fill="#58A4F2"/>
<path d="M0 10C0 4.47715 4.47715 0 10 0H12C17.5228 0 22 4.47715 22 10V48C22 53.5229 17.5228 58 12 58H10C4.47715 58 0 53.5228 0 48V10Z" fill="#DB42D2"/>
<path d="M53.1475 47H41.4995L40.9235 30.424L40.8595 27.672C40.7742 25.112 40.7315 23.1707 40.7315 21.848C40.7315 18.648 40.8595 15.448 41.1155 12.248L35.0355 42.392H23.8355L17.3715 12.248C17.7555 17.24 17.9475 21.6347 17.9475 25.432C17.9475 27.608 17.9262 29.272 17.8835 30.424L17.3715 47H5.7235L8.9875 2.52H23.7075L29.6595 32.024L35.0355 2.52H49.8195L53.1475 47Z" fill="#212121"/>
<path d="M86.3035 36.504C86.3035 37.7413 86.4528 38.6587 86.7515 39.256C87.0928 39.8533 87.6688 40.3013 88.4795 40.6L86.1755 47.96C83.9995 47.7893 82.2075 47.3413 80.7995 46.616C79.4342 45.8907 78.3248 44.7387 77.4715 43.16C75.2955 46.488 71.8608 48.152 67.1675 48.152C63.7968 48.152 61.0875 47.1707 59.0395 45.208C57.0342 43.2027 56.0315 40.6213 56.0315 37.464C56.0315 33.7093 57.4182 30.8293 60.1915 28.824C62.9648 26.8187 66.9755 25.816 72.2235 25.816H75.1675V24.664C75.1675 22.8293 74.7835 21.592 74.0155 20.952C73.2475 20.2693 71.8608 19.928 69.8555 19.928C68.7888 19.928 67.4448 20.0987 65.8235 20.44C64.2448 20.7387 62.6235 21.1653 60.9595 21.72L58.4635 14.36C60.5115 13.5067 62.7088 12.8667 65.0555 12.44C67.4022 11.9707 69.5782 11.736 71.5835 11.736C76.7035 11.736 80.4368 12.76 82.7835 14.808C85.1302 16.8133 86.3035 19.9067 86.3035 24.088V36.504ZM70.6235 40.152C71.5622 40.152 72.4155 39.9173 73.1835 39.448C73.9942 38.936 74.6555 38.2533 75.1675 37.4V31.896H73.2475C71.1995 31.896 69.6848 32.28 68.7035 33.048C67.7222 33.7733 67.2315 34.8827 67.2315 36.376C67.2315 37.528 67.5302 38.4453 68.1275 39.128C68.7248 39.8107 69.5568 40.152 70.6235 40.152Z" fill="#212121"/>
<path d="M115.859 45.336C114.536 46.2747 113 46.9787 111.251 47.448C109.502 47.9173 107.795 48.152 106.131 48.152C98.2377 48.152 94.291 43.8 94.291 35.096V20.696H89.875V12.888H94.291V5.656L105.683 4.312V12.888H113.427L112.275 20.696H105.683V34.968C105.683 36.504 105.918 37.592 106.387 38.232C106.899 38.872 107.646 39.192 108.627 39.192C109.822 39.192 110.974 38.872 112.083 38.232L115.859 45.336Z" fill="#212121"/>
<path d="M148.053 29.4C148.053 29.656 147.989 30.936 147.861 33.24H126.996C127.295 35.8427 128.021 37.6347 129.173 38.616C130.367 39.5547 132.053 40.024 134.229 40.024C135.509 40.024 136.767 39.7893 138.005 39.32C139.285 38.808 140.671 38.04 142.165 37.016L146.773 43.288C144.981 44.7813 142.933 45.976 140.629 46.872C138.325 47.7253 135.829 48.152 133.141 48.152C127.338 48.152 122.922 46.5307 119.893 43.288C116.906 40.0027 115.412 35.608 115.412 30.104C115.412 26.648 116.031 23.5333 117.269 20.76C118.549 17.9867 120.426 15.7893 122.9 14.168C125.375 12.5467 128.362 11.736 131.861 11.736C136.853 11.736 140.799 13.2933 143.701 16.408C146.602 19.48 148.053 23.8107 148.053 29.4ZM136.853 26.2C136.81 23.9387 136.426 22.1893 135.701 20.952C134.975 19.7147 133.759 19.096 132.053 19.096C130.474 19.096 129.279 19.6507 128.469 20.76C127.658 21.8693 127.146 23.8107 126.933 26.584H136.853V26.2Z" fill="#212121"/>
<path d="M182.4 47H172.48L172.033 42.968C169.643 46.424 166.251 48.152 161.857 48.152C158.699 48.152 156.31 47.2133 154.689 45.336C153.11 43.416 152.32 40.7707 152.32 37.4V12.888H163.712V35.928C163.712 37.3787 163.926 38.4027 164.353 39C164.822 39.5547 165.504 39.832 166.4 39.832C167.211 39.832 168 39.5547 168.768 39C169.579 38.4027 170.326 37.5493 171.008 36.44V12.888H182.4V47Z" fill="#212121"/>
<path d="M201.942 11.736C204.417 11.736 206.763 12.12 208.982 12.888C211.243 13.656 213.163 14.7013 214.742 16.024L210.646 22.296C207.915 20.5893 205.163 19.736 202.39 19.736C201.195 19.736 200.299 19.928 199.702 20.312C199.147 20.6533 198.87 21.144 198.87 21.784C198.87 22.3387 199.019 22.7867 199.318 23.128C199.617 23.4693 200.235 23.8533 201.174 24.28C202.155 24.664 203.691 25.176 205.782 25.816C209.281 26.84 211.862 28.184 213.526 29.848C215.19 31.4693 216.022 33.752 216.022 36.696C216.022 39 215.339 41.0267 213.974 42.776C212.651 44.4827 210.795 45.8053 208.406 46.744C206.059 47.6827 203.393 48.152 200.406 48.152C197.505 48.152 194.774 47.704 192.214 46.808C189.697 45.8693 187.563 44.5893 185.814 42.968L191.254 36.888C192.577 37.912 193.985 38.7227 195.478 39.32C197.014 39.9173 198.55 40.216 200.086 40.216C201.451 40.216 202.497 40.0027 203.222 39.576C203.99 39.1067 204.374 38.424 204.374 37.528C204.374 36.8453 204.203 36.312 203.862 35.928C203.563 35.544 202.966 35.1813 202.07 34.84C201.174 34.456 199.638 33.944 197.462 33.304C190.849 31.3413 187.542 27.736 187.542 22.488C187.542 20.4827 188.118 18.6693 189.27 17.048C190.422 15.384 192.065 14.0827 194.198 13.144C196.374 12.2053 198.955 11.736 201.942 11.736Z" fill="#212121"/>
<path d="M133.984 53.52V88.784H151.072L149.792 98H122.144V53.52H133.984Z" fill="#212121"/>
<path d="M183.9 98H173.98L173.533 93.968C171.143 97.424 167.751 99.152 163.357 99.152C160.199 99.152 157.81 98.2133 156.189 96.336C154.61 94.416 153.82 91.7707 153.82 88.4V63.888H165.212V86.928C165.212 88.3787 165.426 89.4027 165.853 90C166.322 90.5547 167.004 90.832 167.9 90.832C168.711 90.832 169.5 90.5547 170.268 90C171.079 89.4027 171.826 88.5493 172.508 87.44V63.888H183.9V98Z" fill="#212121"/>
<path d="M215.73 63.888V71.888L201.074 89.488H216.178L215.154 98H187.826V90L202.674 72.336H189.106V63.888H215.73Z" fill="#212121"/>
</svg>
